<svg xmlns="http://www.w3.org/2000/svg" width="280" height="57" viewBox="0 0 277 57" fill-rule="evenodd" xmlns:v="https://vecta.io/nano"><path d="M213.875 12.25v8.125h16.203V28.5h-16.203v16.25h-8.105V4.121h8.105zm55.023 8.125v-8.129h-8.102V44.75H277v8.129h-8.102V28.5H277v-8.125zM253.539 28.5v-8.125h-8.102v32.504h8.102zm-8.102-16.25h8.102V4.121h-8.102zM230.078 28.5v16.25h8.098V28.5zm0 16.25h-16.203v8.129h16.203zM80.289 52.879H74.41c-.969 0-1.449-.484-1.449-1.457V18.965c0-.973.48-1.457 1.449-1.457h5.879c.965 0 1.449.484 1.449 1.457v2.289h.277c.551-1.109 1.488-2.012 2.801-2.707s2.82-1.039 4.527-1.039h1.938c4.008 0 6.891 1.48 8.645 4.438 1.563-2.957 4.262-4.437 8.086-4.437h2.008c3.547 0 6.23.969 8.051 2.914s2.734 4.738 2.734 8.391v22.609c0 .973-.484 1.457-1.453 1.457h-5.875c-.969 0-1.453-.484-1.453-1.457V29.23c0-1.48-.297-2.535-.898-3.156s-1.637-.937-3.113-.937h-1.73c-3.176 0-4.77 1.781-4.77 5.34v20.945c0 .973-.504 1.457-1.52 1.457h-5.809c-.965 0-1.449-.484-1.449-1.457V29.23c0-1.48-.312-2.535-.934-3.156s-1.672-.937-3.148-.937h-2.145c-3.18 0-4.77 1.758-4.77 5.273v21.012c0 .973-.484 1.457-1.449 1.457zm48.188-41.336V5.508c0-.922.461-1.387 1.383-1.387h6.016c.922 0 1.383.438 1.383 1.32v6.102c0 .926-.461 1.387-1.383 1.387h-6.016c-.922 0-1.383-.461-1.383-1.387zm0 39.879V18.965c0-.973.461-1.457 1.383-1.457h5.945c.969 0 1.453.484 1.453 1.457v32.457c0 .602-.105.996-.312 1.18s-.566.277-1.07.277h-5.949c-.965 0-1.449-.484-1.449-1.457zm24.059 1.457h-5.875c-.969 0-1.453-.484-1.453-1.457V18.965c0-.973.484-1.457 1.453-1.457h5.875c.969 0 1.453.484 1.453 1.457v2.289h.277c1.012-2.5 3.273-3.746 6.777-3.746h2.211c7.238 0 10.852 3.77 10.852 11.305v22.609c0 .973-.504 1.457-1.52 1.457h-5.809c-.969 0-1.449-.484-1.449-1.457V29.23c0-1.48-.312-2.535-.934-3.156s-1.672-.937-3.148-.937h-2.488c-3.18 0-4.77 1.758-4.77 5.273v21.012c0 .973-.484 1.457-1.453 1.457zm29.594-27.742h-2.77c-.551 0-.93-.094-1.137-.277s-.312-.555-.312-1.109v-4.785c0-.973.484-1.457 1.449-1.457h2.77c.504 0 .758-.254.758-.762v-6.59c0-.973.508-1.457 1.52-1.457h5.809c.969 0 1.453.484 1.453 1.457v6.59c0 .508.277.762.832.762h5.391c.969 0 1.453.484 1.453 1.457v4.785c0 .508-.105.867-.312 1.074s-.59.313-1.141.313h-5.395c-.551 0-.828.254-.828.762v15.328c0 1.434.32 2.461.965 3.09s1.707.934 3.184.934h2.766c.965 0 1.449.484 1.449 1.453v4.789c0 .508-.102.867-.309 1.074s-.586.313-1.141.313h-4.219c-3.641 0-6.465-.969-8.469-2.91s-3.008-4.719-3.008-8.324V25.898c0-.508-.254-.762-.758-.762zm0 0" fill="rgb(0%,0%,0%)"/><g fill="rgb(41.176471%,72.54902%,12.941176%)"><path d="M40.543 16.297V8.164h8.109v8.133zM16.219 48.836h24.324v-8.137h8.109V24.434h8.105V.031H32.434v8.133H16.219v8.133h-8.11v32.539zm16.215-24.402h8.109v-8.137h-8.109zm-8.109 8.133v-8.133h8.109v8.133zM16.22 40.7v-8.133h8.109V40.7zM0 48.836h8.109v8.133H0zm0 0"/><path d="M32.434 32.566h-8.109v8.133H8.109v8.137h32.434v-8.137h8.109V24.434h8.105V8.164h-8.105v8.133h-8.109v8.137h-8.109zm0 0"/></g></svg>